<svg width="800" height="800" viewBox="0 0 24 24" id="Layer_1" data-name="Layer 1" xmlns="http://www.w3.org/2000/svg">
    <path style="fill:none;stroke:#020202;stroke-miterlimit:10;stroke-width:1.91px" d="M17.59 19.64H4.5a2.86 2.86 0 0 1-3-2.7v-.33a2.86 2.86 0 0 1 3-2.7h13.09a2.86 2.86 0 0 1 3 2.7v.33a2.86 2.86 0 0 1-3 2.7Z"/>
    <path style="fill:none;stroke:#020202;stroke-miterlimit:10;stroke-width:1.91px" d="M2.46 14.63V12l1.9-2.86h13.37L19.64 12v2.63M10.09 16.77H12M14.86 16.77h1.91M5.32 16.77h1.91M15.82 9.14H6.27l1.91-4.78h5.73l1.91 4.78zM14.86 6.27h7.64M22.5 4.36v3.82"/>
</svg>
